<svg xmlns="http://www.w3.org/2000/svg" xmlns:xlink="http://www.w3.org/1999/xlink" width="500" zoomAndPan="magnify" viewBox="0 0 375 374.999991" height="500" preserveAspectRatio="xMidYMid meet" version="1.0"><defs><filter x="0%" y="0%" width="100%" height="100%" id="id1"><feColorMatrix values="0 0 0 0 1 0 0 0 0 1 0 0 0 0 1 0 0 0 1 0" color-interpolation-filters="sRGB"/></filter><g/><mask id="id2"><g filter="url(#id1)"><rect x="-37.5" width="450" fill="#000000" y="-37.499999" height="449.999989" fill-opacity="0.098"/></g></mask><clipPath id="id3"><path d="M 0.238281 29 L 130 29 L 130 159 L 0.238281 159 Z M 0.238281 29 " clip-rule="nonzero"/></clipPath><clipPath id="id4"><path d="M 29 0.839844 L 158.398438 0.839844 L 158.398438 131 L 29 131 Z M 29 0.839844 " clip-rule="nonzero"/></clipPath><clipPath id="id5"><rect x="0" width="159" y="0" height="159"/></clipPath></defs><g mask="url(#id2)"><g transform="matrix(1, 0, 0, 1, 108, 177)"><g clip-path="url(#id5)"><g clip-path="url(#id3)"><path fill="#3870c2" d="M 55.953125 104.074219 L 64.65625 95.363281 L 20.417969 51.070312 C 8.4375 75.585938 12.617188 106.019531 32.972656 126.398438 C 56.726562 150.179688 94.15625 151.914062 119.90625 131.613281 L 129.378906 141.09375 C 98.371094 166.566406 52.515625 164.8125 23.5625 135.824219 C -2.042969 110.1875 -6.375 71.320312 10.5625 41.207031 L 10.558594 41.203125 C 10.613281 41.105469 10.671875 41.007812 10.726562 40.910156 C 10.875 40.648438 11.027344 40.386719 11.179688 40.125 C 11.324219 39.875 11.472656 39.625 11.621094 39.378906 C 11.773438 39.125 11.929688 38.867188 12.085938 38.613281 C 12.238281 38.359375 12.398438 38.109375 12.554688 37.855469 C 12.710938 37.609375 12.867188 37.363281 13.027344 37.117188 C 13.191406 36.859375 13.363281 36.601562 13.53125 36.34375 C 13.6875 36.109375 13.84375 35.871094 14.003906 35.636719 C 14.183594 35.371094 14.371094 35.105469 14.554688 34.839844 C 14.710938 34.617188 14.863281 34.394531 15.019531 34.171875 C 15.222656 33.890625 15.425781 33.609375 15.628906 33.332031 C 15.777344 33.128906 15.921875 32.925781 16.074219 32.726562 C 16.308594 32.410156 16.546875 32.101562 16.789062 31.789062 C 16.914062 31.625 17.039062 31.457031 17.164062 31.296875 C 17.535156 30.820312 17.914062 30.351562 18.296875 29.882812 L 27.765625 39.363281 L 99.785156 111.46875 L 55.953125 104.074219 " fill-opacity="1" fill-rule="nonzero"/></g><g clip-path="url(#id4)"><path fill="#ff1616" d="M 148.1875 118.679688 L 148.195312 118.683594 C 148.136719 118.78125 148.078125 118.875 148.023438 118.972656 C 147.875 119.234375 147.722656 119.5 147.570312 119.761719 C 147.425781 120.011719 147.277344 120.257812 147.128906 120.503906 C 146.976562 120.761719 146.820312 121.019531 146.667969 121.273438 C 146.511719 121.527344 146.355469 121.777344 146.195312 122.027344 C 146.042969 122.273438 145.882812 122.523438 145.726562 122.769531 C 145.558594 123.027344 145.390625 123.28125 145.21875 123.539062 C 145.0625 123.777344 144.90625 124.011719 144.746094 124.246094 C 144.566406 124.515625 144.382812 124.78125 144.199219 125.046875 C 144.042969 125.269531 143.890625 125.492188 143.730469 125.710938 C 143.53125 125.992188 143.328125 126.273438 143.125 126.550781 C 142.972656 126.753906 142.828125 126.957031 142.679688 127.160156 C 142.441406 127.472656 142.203125 127.785156 141.964844 128.097656 C 141.835938 128.257812 141.714844 128.425781 141.585938 128.589844 C 141.214844 129.0625 140.839844 129.535156 140.457031 130.003906 L 130.984375 120.523438 L 58.964844 48.417969 L 102.796875 55.816406 L 94.097656 64.523438 L 138.335938 108.8125 C 150.316406 84.296875 146.132812 53.863281 125.777344 33.484375 C 102.023438 9.707031 64.597656 7.96875 38.84375 28.273438 L 29.375 18.792969 C 60.378906 -6.683594 106.234375 -4.925781 135.191406 24.0625 C 160.796875 49.699219 165.125 88.5625 148.1875 118.679688 " fill-opacity="1" fill-rule="nonzero"/></g></g></g></g><path fill="#3870c2" d="M 163.953125 84.21875 L 172.65625 92.929688 L 128.417969 137.21875 C 116.4375 112.703125 120.617188 82.269531 140.972656 61.890625 C 164.726562 38.109375 202.15625 36.375 227.90625 56.679688 L 237.378906 47.195312 C 206.371094 21.722656 160.515625 23.480469 131.5625 52.46875 C 105.957031 78.105469 101.625 116.96875 118.5625 147.085938 L 118.558594 147.089844 C 118.613281 147.1875 118.671875 147.28125 118.726562 147.378906 C 118.875 147.640625 119.027344 147.90625 119.179688 148.167969 C 119.324219 148.417969 119.472656 148.664062 119.621094 148.910156 C 119.773438 149.167969 119.929688 149.425781 120.085938 149.679688 C 120.238281 149.929688 120.398438 150.183594 120.554688 150.433594 C 120.710938 150.679688 120.867188 150.929688 121.027344 151.175781 C 121.191406 151.433594 121.363281 151.6875 121.53125 151.945312 C 121.6875 152.179688 121.84375 152.417969 122.003906 152.652344 C 122.183594 152.921875 122.371094 153.183594 122.554688 153.449219 C 122.710938 153.671875 122.863281 153.894531 123.019531 154.117188 C 123.222656 154.398438 123.425781 154.679688 123.628906 154.957031 C 123.777344 155.160156 123.921875 155.363281 124.074219 155.5625 C 124.308594 155.878906 124.546875 156.191406 124.789062 156.5 C 124.914062 156.667969 125.039062 156.832031 125.164062 156.996094 C 125.535156 157.46875 125.914062 157.941406 126.296875 158.40625 L 135.765625 148.925781 L 207.785156 76.820312 L 163.953125 84.21875 " fill-opacity="1" fill-rule="nonzero"/><path fill="#ff1616" d="M 256.1875 69.613281 L 256.195312 69.609375 C 256.136719 69.507812 256.078125 69.414062 256.023438 69.316406 C 255.875 69.054688 255.722656 68.792969 255.570312 68.527344 C 255.425781 68.28125 255.277344 68.03125 255.128906 67.785156 C 254.976562 67.527344 254.820312 67.269531 254.667969 67.019531 C 254.511719 66.765625 254.355469 66.515625 254.195312 66.261719 C 254.042969 66.015625 253.882812 65.769531 253.726562 65.519531 C 253.558594 65.261719 253.390625 65.007812 253.21875 64.75 C 253.0625 64.515625 252.90625 64.277344 252.746094 64.042969 C 252.566406 63.777344 252.382812 63.511719 252.199219 63.246094 C 252.042969 63.023438 251.890625 62.800781 251.730469 62.578125 C 251.53125 62.296875 251.328125 62.019531 251.125 61.738281 C 250.972656 61.539062 250.828125 61.332031 250.679688 61.132812 C 250.441406 60.816406 250.203125 60.503906 249.964844 60.195312 C 249.835938 60.03125 249.714844 59.863281 249.585938 59.703125 C 249.214844 59.226562 248.839844 58.753906 248.457031 58.289062 L 238.984375 67.769531 L 166.964844 139.871094 L 210.796875 132.476562 L 202.097656 123.765625 L 246.335938 79.476562 C 258.316406 103.992188 254.132812 134.425781 233.777344 154.804688 C 210.023438 178.585938 172.597656 180.320312 146.84375 160.019531 L 137.375 169.5 C 168.378906 194.972656 214.234375 193.214844 243.191406 164.226562 C 268.796875 138.589844 273.125 99.726562 256.1875 69.613281 " fill-opacity="1" fill-rule="nonzero"/><g fill="#000000" fill-opacity="1"><g transform="translate(71.030127, 317.195194)"><g><path d="M 6.3125 -15.75 C 8.375 -15.75 9.875 -15.34375 10.8125 -14.53125 C 11.75 -13.726562 12.21875 -12.59375 12.21875 -11.125 C 12.21875 -10.25 12.019531 -9.429688 11.625 -8.671875 C 11.238281 -7.921875 10.585938 -7.3125 9.671875 -6.84375 C 8.753906 -6.375 7.507812 -6.140625 5.9375 -6.140625 L 4.125 -6.140625 L 4.125 0 L 2.140625 0 L 2.140625 -15.75 Z M 6.140625 -14.046875 L 4.125 -14.046875 L 4.125 -7.828125 L 5.71875 -7.828125 C 7.21875 -7.828125 8.332031 -8.066406 9.0625 -8.546875 C 9.800781 -9.035156 10.171875 -9.863281 10.171875 -11.03125 C 10.171875 -12.039062 9.84375 -12.796875 9.1875 -13.296875 C 8.53125 -13.796875 7.515625 -14.046875 6.140625 -14.046875 Z M 6.140625 -14.046875 "/></g></g></g><g fill="#000000" fill-opacity="1"><g transform="translate(85.961655, 317.195194)"><g><path d="M 6.359375 -12.03125 C 7.796875 -12.03125 8.859375 -11.710938 9.546875 -11.078125 C 10.242188 -10.441406 10.59375 -9.429688 10.59375 -8.046875 L 10.59375 0 L 9.171875 0 L 8.796875 -1.671875 L 8.71875 -1.671875 C 8.195312 -1.023438 7.648438 -0.546875 7.078125 -0.234375 C 6.503906 0.0664062 5.726562 0.21875 4.75 0.21875 C 3.675781 0.21875 2.785156 -0.0625 2.078125 -0.625 C 1.367188 -1.195312 1.015625 -2.082031 1.015625 -3.28125 C 1.015625 -4.457031 1.476562 -5.363281 2.40625 -6 C 3.332031 -6.644531 4.757812 -7 6.6875 -7.0625 L 8.6875 -7.125 L 8.6875 -7.828125 C 8.6875 -8.816406 8.472656 -9.5 8.046875 -9.875 C 7.617188 -10.257812 7.019531 -10.453125 6.25 -10.453125 C 5.625 -10.453125 5.03125 -10.359375 4.46875 -10.171875 C 3.914062 -9.992188 3.394531 -9.785156 2.90625 -9.546875 L 2.3125 -11.015625 C 2.832031 -11.285156 3.441406 -11.519531 4.140625 -11.71875 C 4.847656 -11.925781 5.585938 -12.03125 6.359375 -12.03125 Z M 8.671875 -5.78125 L 6.921875 -5.71875 C 5.453125 -5.65625 4.429688 -5.414062 3.859375 -5 C 3.296875 -4.59375 3.015625 -4.015625 3.015625 -3.265625 C 3.015625 -2.597656 3.21875 -2.109375 3.625 -1.796875 C 4.03125 -1.492188 4.550781 -1.34375 5.1875 -1.34375 C 6.164062 -1.34375 6.988281 -1.617188 7.65625 -2.171875 C 8.332031 -2.722656 8.671875 -3.570312 8.671875 -4.71875 Z M 8.671875 -5.78125 "/></g></g></g><g fill="#000000" fill-opacity="1"><g transform="translate(99.922769, 317.195194)"><g><path d="M 3.8125 0 L 1.875 0 L 1.875 -16.765625 L 3.8125 -16.765625 Z M 3.8125 0 "/></g></g></g><g fill="#000000" fill-opacity="1"><g transform="translate(107.201299, 317.195194)"><g><path d="M 2.875 -16.265625 C 3.164062 -16.265625 3.425781 -16.164062 3.65625 -15.96875 C 3.882812 -15.769531 4 -15.457031 4 -15.03125 C 4 -14.601562 3.882812 -14.289062 3.65625 -14.09375 C 3.425781 -13.894531 3.164062 -13.796875 2.875 -13.796875 C 2.539062 -13.796875 2.265625 -13.894531 2.046875 -14.09375 C 1.828125 -14.289062 1.71875 -14.601562 1.71875 -15.03125 C 1.71875 -15.457031 1.828125 -15.769531 2.046875 -15.96875 C 2.265625 -16.164062 2.539062 -16.265625 2.875 -16.265625 Z M 3.8125 -11.828125 L 3.8125 0 L 1.875 0 L 1.875 -11.828125 Z M 3.8125 -11.828125 "/></g></g></g><g fill="#000000" fill-opacity="1"><g transform="translate(114.479833, 317.195194)"><g><path d="M 7.5625 -12.046875 C 8.976562 -12.046875 10.046875 -11.695312 10.765625 -11 C 11.484375 -10.3125 11.84375 -9.210938 11.84375 -7.703125 L 11.84375 0 L 9.921875 0 L 9.921875 -7.5625 C 9.921875 -9.457031 9.039062 -10.40625 7.28125 -10.40625 C 5.96875 -10.40625 5.0625 -10.035156 4.5625 -9.296875 C 4.0625 -8.566406 3.8125 -7.515625 3.8125 -6.140625 L 3.8125 0 L 1.875 0 L 1.875 -11.828125 L 3.4375 -11.828125 L 3.734375 -10.21875 L 3.84375 -10.21875 C 4.21875 -10.832031 4.742188 -11.289062 5.421875 -11.59375 C 6.097656 -11.894531 6.8125 -12.046875 7.5625 -12.046875 Z M 7.5625 -12.046875 "/></g></g></g><g fill="#000000" fill-opacity="1"><g transform="translate(129.698071, 317.195194)"><g><path d="M 6.0625 0.21875 C 4.59375 0.21875 3.414062 -0.289062 2.53125 -1.3125 C 1.65625 -2.332031 1.21875 -3.859375 1.21875 -5.890625 C 1.21875 -7.921875 1.660156 -9.453125 2.546875 -10.484375 C 3.441406 -11.523438 4.625 -12.046875 6.09375 -12.046875 C 7 -12.046875 7.742188 -11.875 8.328125 -11.53125 C 8.910156 -11.195312 9.382812 -10.785156 9.75 -10.296875 L 9.890625 -10.296875 C 9.859375 -10.492188 9.828125 -10.78125 9.796875 -11.15625 C 9.765625 -11.53125 9.75 -11.828125 9.75 -12.046875 L 9.75 -16.765625 L 11.6875 -16.765625 L 11.6875 0 L 10.125 0 L 9.84375 -1.59375 L 9.75 -1.59375 C 9.394531 -1.09375 8.921875 -0.664062 8.328125 -0.3125 C 7.742188 0.0390625 6.988281 0.21875 6.0625 0.21875 Z M 6.375 -1.390625 C 7.625 -1.390625 8.503906 -1.726562 9.015625 -2.40625 C 9.523438 -3.09375 9.78125 -4.128906 9.78125 -5.515625 L 9.78125 -5.875 C 9.78125 -7.34375 9.535156 -8.46875 9.046875 -9.25 C 8.554688 -10.039062 7.660156 -10.4375 6.359375 -10.4375 C 5.304688 -10.4375 4.519531 -10.019531 4 -9.1875 C 3.476562 -8.351562 3.21875 -7.238281 3.21875 -5.84375 C 3.21875 -4.4375 3.476562 -3.34375 4 -2.5625 C 4.519531 -1.78125 5.3125 -1.390625 6.375 -1.390625 Z M 6.375 -1.390625 "/></g></g></g><g fill="#000000" fill-opacity="1"><g transform="translate(144.85015, 317.195194)"><g><path d="M 7.390625 -12.046875 C 7.609375 -12.046875 7.84375 -12.035156 8.09375 -12.015625 C 8.34375 -11.992188 8.570312 -11.957031 8.78125 -11.90625 L 8.53125 -10.125 C 8.34375 -10.164062 8.128906 -10.203125 7.890625 -10.234375 C 7.660156 -10.265625 7.453125 -10.28125 7.265625 -10.28125 C 6.660156 -10.28125 6.09375 -10.113281 5.5625 -9.78125 C 5.03125 -9.445312 4.601562 -8.984375 4.28125 -8.390625 C 3.96875 -7.796875 3.8125 -7.101562 3.8125 -6.3125 L 3.8125 0 L 1.875 0 L 1.875 -11.828125 L 3.46875 -11.828125 L 3.6875 -9.65625 L 3.765625 -9.65625 C 4.140625 -10.3125 4.628906 -10.875 5.234375 -11.34375 C 5.847656 -11.8125 6.566406 -12.046875 7.390625 -12.046875 Z M 7.390625 -12.046875 "/></g></g></g><g fill="#000000" fill-opacity="1"><g transform="translate(155.547171, 317.195194)"><g><path d="M 12.15625 -5.9375 C 12.15625 -3.976562 11.65625 -2.460938 10.65625 -1.390625 C 9.664062 -0.316406 8.328125 0.21875 6.640625 0.21875 C 5.597656 0.21875 4.664062 -0.0195312 3.84375 -0.5 C 3.03125 -0.976562 2.390625 -1.675781 1.921875 -2.59375 C 1.453125 -3.507812 1.21875 -4.625 1.21875 -5.9375 C 1.21875 -7.894531 1.703125 -9.398438 2.671875 -10.453125 C 3.648438 -11.515625 4.992188 -12.046875 6.703125 -12.046875 C 7.765625 -12.046875 8.707031 -11.804688 9.53125 -11.328125 C 10.351562 -10.847656 10.992188 -10.15625 11.453125 -9.25 C 11.921875 -8.34375 12.15625 -7.238281 12.15625 -5.9375 Z M 3.21875 -5.9375 C 3.21875 -4.539062 3.492188 -3.429688 4.046875 -2.609375 C 4.597656 -1.796875 5.476562 -1.390625 6.6875 -1.390625 C 7.875 -1.390625 8.75 -1.796875 9.3125 -2.609375 C 9.875 -3.429688 10.15625 -4.539062 10.15625 -5.9375 C 10.15625 -7.332031 9.875 -8.425781 9.3125 -9.21875 C 8.75 -10.007812 7.863281 -10.40625 6.65625 -10.40625 C 5.457031 -10.40625 4.582031 -10.007812 4.03125 -9.21875 C 3.488281 -8.425781 3.21875 -7.332031 3.21875 -5.9375 Z M 3.21875 -5.9375 "/></g></g></g><g fill="#000000" fill-opacity="1"><g transform="translate(170.478694, 317.195194)"><g><path d="M 14.84375 -12.046875 C 16.1875 -12.046875 17.1875 -11.695312 17.84375 -11 C 18.507812 -10.3125 18.84375 -9.210938 18.84375 -7.703125 L 18.84375 0 L 16.921875 0 L 16.921875 -7.609375 C 16.921875 -9.472656 16.117188 -10.40625 14.515625 -10.40625 C 13.367188 -10.40625 12.546875 -10.070312 12.046875 -9.40625 C 11.554688 -8.75 11.3125 -7.789062 11.3125 -6.53125 L 11.3125 0 L 9.40625 0 L 9.40625 -7.609375 C 9.40625 -9.472656 8.59375 -10.40625 6.96875 -10.40625 C 5.78125 -10.40625 4.957031 -10.035156 4.5 -9.296875 C 4.039062 -8.566406 3.8125 -7.515625 3.8125 -6.140625 L 3.8125 0 L 1.875 0 L 1.875 -11.828125 L 3.4375 -11.828125 L 3.734375 -10.21875 L 3.84375 -10.21875 C 4.207031 -10.832031 4.703125 -11.289062 5.328125 -11.59375 C 5.953125 -11.894531 6.617188 -12.046875 7.328125 -12.046875 C 9.179688 -12.046875 10.382812 -11.382812 10.9375 -10.0625 L 11.046875 -10.0625 C 11.453125 -10.738281 11.988281 -11.238281 12.65625 -11.5625 C 13.332031 -11.882812 14.0625 -12.046875 14.84375 -12.046875 Z M 14.84375 -12.046875 "/></g></g></g><g fill="#000000" fill-opacity="1"><g transform="translate(192.688287, 317.195194)"><g><path d="M 6.4375 -12.046875 C 7.4375 -12.046875 8.304688 -11.820312 9.046875 -11.375 C 9.785156 -10.9375 10.347656 -10.316406 10.734375 -9.515625 C 11.117188 -8.710938 11.3125 -7.773438 11.3125 -6.703125 L 11.3125 -5.53125 L 3.21875 -5.53125 C 3.25 -4.195312 3.59375 -3.179688 4.25 -2.484375 C 4.90625 -1.785156 5.820312 -1.4375 7 -1.4375 C 7.75 -1.4375 8.410156 -1.503906 8.984375 -1.640625 C 9.566406 -1.785156 10.164062 -1.988281 10.78125 -2.25 L 10.78125 -0.546875 C 10.1875 -0.285156 9.59375 -0.09375 9 0.03125 C 8.414062 0.15625 7.71875 0.21875 6.90625 0.21875 C 5.769531 0.21875 4.773438 -0.00390625 3.921875 -0.453125 C 3.066406 -0.910156 2.398438 -1.585938 1.921875 -2.484375 C 1.453125 -3.390625 1.21875 -4.503906 1.21875 -5.828125 C 1.21875 -7.117188 1.429688 -8.226562 1.859375 -9.15625 C 2.296875 -10.082031 2.90625 -10.796875 3.6875 -11.296875 C 4.476562 -11.796875 5.394531 -12.046875 6.4375 -12.046875 Z M 6.421875 -10.453125 C 5.492188 -10.453125 4.757812 -10.15625 4.21875 -9.5625 C 3.6875 -8.96875 3.367188 -8.140625 3.265625 -7.078125 L 9.28125 -7.078125 C 9.269531 -8.078125 9.035156 -8.890625 8.578125 -9.515625 C 8.117188 -10.140625 7.398438 -10.453125 6.421875 -10.453125 Z M 6.421875 -10.453125 "/></g></g></g><g fill="#000000" fill-opacity="1"><g transform="translate(206.715573, 317.195194)"><g/></g></g><g fill="#000000" fill-opacity="1"><g transform="translate(210.509463, 317.195194)"><g><path d="M 8.890625 -14.234375 C 7.203125 -14.234375 5.867188 -13.664062 4.890625 -12.53125 C 3.921875 -11.394531 3.4375 -9.84375 3.4375 -7.875 C 3.4375 -5.914062 3.890625 -4.363281 4.796875 -3.21875 C 5.703125 -2.082031 7.0625 -1.515625 8.875 -1.515625 C 9.550781 -1.515625 10.195312 -1.570312 10.8125 -1.6875 C 11.425781 -1.8125 12.035156 -1.960938 12.640625 -2.140625 L 12.640625 -0.421875 C 12.054688 -0.203125 11.453125 -0.0390625 10.828125 0.0625 C 10.203125 0.164062 9.453125 0.21875 8.578125 0.21875 C 6.972656 0.21875 5.632812 -0.109375 4.5625 -0.765625 C 3.488281 -1.429688 2.679688 -2.375 2.140625 -3.59375 C 1.609375 -4.8125 1.34375 -6.242188 1.34375 -7.890625 C 1.34375 -9.484375 1.632812 -10.882812 2.21875 -12.09375 C 2.800781 -13.3125 3.65625 -14.257812 4.78125 -14.9375 C 5.914062 -15.625 7.289062 -15.96875 8.90625 -15.96875 C 10.570312 -15.96875 12.023438 -15.660156 13.265625 -15.046875 L 12.46875 -13.375 C 11.976562 -13.59375 11.4375 -13.789062 10.84375 -13.96875 C 10.25 -14.144531 9.597656 -14.234375 8.890625 -14.234375 Z M 8.890625 -14.234375 "/></g></g></g><g fill="#000000" fill-opacity="1"><g transform="translate(226.036473, 317.195194)"><g><path d="M 3.8125 -16.765625 L 3.8125 -11.84375 C 3.8125 -11.257812 3.773438 -10.707031 3.703125 -10.1875 L 3.84375 -10.1875 C 4.21875 -10.789062 4.734375 -11.25 5.390625 -11.5625 C 6.046875 -11.875 6.753906 -12.03125 7.515625 -12.03125 C 8.941406 -12.03125 10.019531 -11.6875 10.75 -11 C 11.476562 -10.3125 11.84375 -9.210938 11.84375 -7.703125 L 11.84375 0 L 9.921875 0 L 9.921875 -7.5625 C 9.921875 -9.457031 9.039062 -10.40625 7.28125 -10.40625 C 5.957031 -10.40625 5.046875 -10.035156 4.546875 -9.296875 C 4.054688 -8.554688 3.8125 -7.492188 3.8125 -6.109375 L 3.8125 0 L 1.875 0 L 1.875 -16.765625 Z M 3.8125 -16.765625 "/></g></g></g><g fill="#000000" fill-opacity="1"><g transform="translate(241.254711, 317.195194)"><g><path d="M 6.4375 -12.046875 C 7.4375 -12.046875 8.304688 -11.820312 9.046875 -11.375 C 9.785156 -10.9375 10.347656 -10.316406 10.734375 -9.515625 C 11.117188 -8.710938 11.3125 -7.773438 11.3125 -6.703125 L 11.3125 -5.53125 L 3.21875 -5.53125 C 3.25 -4.195312 3.59375 -3.179688 4.25 -2.484375 C 4.90625 -1.785156 5.820312 -1.4375 7 -1.4375 C 7.75 -1.4375 8.410156 -1.503906 8.984375 -1.640625 C 9.566406 -1.785156 10.164062 -1.988281 10.78125 -2.25 L 10.78125 -0.546875 C 10.1875 -0.285156 9.59375 -0.09375 9 0.03125 C 8.414062 0.15625 7.71875 0.21875 6.90625 0.21875 C 5.769531 0.21875 4.773438 -0.00390625 3.921875 -0.453125 C 3.066406 -0.910156 2.398438 -1.585938 1.921875 -2.484375 C 1.453125 -3.390625 1.21875 -4.503906 1.21875 -5.828125 C 1.21875 -7.117188 1.429688 -8.226562 1.859375 -9.15625 C 2.296875 -10.082031 2.90625 -10.796875 3.6875 -11.296875 C 4.476562 -11.796875 5.394531 -12.046875 6.4375 -12.046875 Z M 6.421875 -10.453125 C 5.492188 -10.453125 4.757812 -10.15625 4.21875 -9.5625 C 3.6875 -8.96875 3.367188 -8.140625 3.265625 -7.078125 L 9.28125 -7.078125 C 9.269531 -8.078125 9.035156 -8.890625 8.578125 -9.515625 C 8.117188 -10.140625 7.398438 -10.453125 6.421875 -10.453125 Z M 6.421875 -10.453125 "/></g></g></g><g fill="#000000" fill-opacity="1"><g transform="translate(255.281997, 317.195194)"><g><path d="M 6.625 0.21875 C 5.5625 0.21875 4.625 0.00390625 3.8125 -0.421875 C 3.007812 -0.847656 2.375 -1.507812 1.90625 -2.40625 C 1.445312 -3.300781 1.21875 -4.445312 1.21875 -5.84375 C 1.21875 -7.300781 1.453125 -8.484375 1.921875 -9.390625 C 2.398438 -10.304688 3.054688 -10.976562 3.890625 -11.40625 C 4.734375 -11.832031 5.6875 -12.046875 6.75 -12.046875 C 7.34375 -12.046875 7.921875 -11.984375 8.484375 -11.859375 C 9.046875 -11.734375 9.503906 -11.582031 9.859375 -11.40625 L 9.265625 -9.796875 C 8.910156 -9.929688 8.5 -10.054688 8.03125 -10.171875 C 7.5625 -10.285156 7.117188 -10.34375 6.703125 -10.34375 C 4.378906 -10.34375 3.21875 -8.851562 3.21875 -5.875 C 3.21875 -4.445312 3.5 -3.351562 4.0625 -2.59375 C 4.632812 -1.832031 5.476562 -1.453125 6.59375 -1.453125 C 7.226562 -1.453125 7.796875 -1.519531 8.296875 -1.65625 C 8.796875 -1.789062 9.25 -1.953125 9.65625 -2.140625 L 9.65625 -0.421875 C 9.257812 -0.210938 8.820312 -0.0546875 8.34375 0.046875 C 7.875 0.160156 7.300781 0.21875 6.625 0.21875 Z M 6.625 0.21875 "/></g></g></g><g fill="#000000" fill-opacity="1"><g transform="translate(267.45669, 317.195194)"><g><path d="M 3.796875 -16.765625 L 3.796875 -8.015625 C 3.796875 -7.773438 3.785156 -7.460938 3.765625 -7.078125 C 3.742188 -6.703125 3.722656 -6.375 3.703125 -6.09375 L 3.796875 -6.09375 C 3.878906 -6.207031 4.007812 -6.375 4.1875 -6.59375 C 4.363281 -6.8125 4.546875 -7.035156 4.734375 -7.265625 C 4.921875 -7.492188 5.078125 -7.679688 5.203125 -7.828125 L 8.984375 -11.828125 L 11.25 -11.828125 L 6.46875 -6.765625 L 11.578125 0 L 9.25 0 L 5.140625 -5.515625 L 3.796875 -4.34375 L 3.796875 0 L 1.875 0 L 1.875 -16.765625 Z M 3.796875 -16.765625 "/></g></g></g><g fill="#000000" fill-opacity="1"><g transform="translate(280.822336, 317.195194)"><g><path d="M 6.4375 -12.046875 C 7.4375 -12.046875 8.304688 -11.820312 9.046875 -11.375 C 9.785156 -10.9375 10.347656 -10.316406 10.734375 -9.515625 C 11.117188 -8.710938 11.3125 -7.773438 11.3125 -6.703125 L 11.3125 -5.53125 L 3.21875 -5.53125 C 3.25 -4.195312 3.59375 -3.179688 4.25 -2.484375 C 4.90625 -1.785156 5.820312 -1.4375 7 -1.4375 C 7.75 -1.4375 8.410156 -1.503906 8.984375 -1.640625 C 9.566406 -1.785156 10.164062 -1.988281 10.78125 -2.25 L 10.78125 -0.546875 C 10.1875 -0.285156 9.59375 -0.09375 9 0.03125 C 8.414062 0.15625 7.71875 0.21875 6.90625 0.21875 C 5.769531 0.21875 4.773438 -0.00390625 3.921875 -0.453125 C 3.066406 -0.910156 2.398438 -1.585938 1.921875 -2.484375 C 1.453125 -3.390625 1.21875 -4.503906 1.21875 -5.828125 C 1.21875 -7.117188 1.429688 -8.226562 1.859375 -9.15625 C 2.296875 -10.082031 2.90625 -10.796875 3.6875 -11.296875 C 4.476562 -11.796875 5.394531 -12.046875 6.4375 -12.046875 Z M 6.421875 -10.453125 C 5.492188 -10.453125 4.757812 -10.15625 4.21875 -9.5625 C 3.6875 -8.96875 3.367188 -8.140625 3.265625 -7.078125 L 9.28125 -7.078125 C 9.269531 -8.078125 9.035156 -8.890625 8.578125 -9.515625 C 8.117188 -10.140625 7.398438 -10.453125 6.421875 -10.453125 Z M 6.421875 -10.453125 "/></g></g></g><g fill="#000000" fill-opacity="1"><g transform="translate(294.849609, 317.195194)"><g><path d="M 7.390625 -12.046875 C 7.609375 -12.046875 7.84375 -12.035156 8.09375 -12.015625 C 8.34375 -11.992188 8.570312 -11.957031 8.78125 -11.90625 L 8.53125 -10.125 C 8.34375 -10.164062 8.128906 -10.203125 7.890625 -10.234375 C 7.660156 -10.265625 7.453125 -10.28125 7.265625 -10.28125 C 6.660156 -10.28125 6.09375 -10.113281 5.5625 -9.78125 C 5.03125 -9.445312 4.601562 -8.984375 4.28125 -8.390625 C 3.96875 -7.796875 3.8125 -7.101562 3.8125 -6.3125 L 3.8125 0 L 1.875 0 L 1.875 -11.828125 L 3.46875 -11.828125 L 3.6875 -9.65625 L 3.765625 -9.65625 C 4.140625 -10.3125 4.628906 -10.875 5.234375 -11.34375 C 5.847656 -11.8125 6.566406 -12.046875 7.390625 -12.046875 Z M 7.390625 -12.046875 "/></g></g></g><g fill="#000000" fill-opacity="1"><g transform="translate(85.639772, 267.588863)"><g><path d="M 25.5 0 L 20.34375 -18.5 L 14.640625 -18.5 L 14.640625 0 L 4 0 L 4 -53.015625 L 21.890625 -53.015625 C 25.691406 -53.015625 28.554688 -52.375 30.484375 -51.09375 C 32.410156 -49.8125 33.707031 -47.960938 34.375 -45.546875 C 35.039062 -43.128906 35.375 -39.890625 35.375 -35.828125 C 35.375 -31.972656 35.023438 -28.785156 34.328125 -26.265625 C 33.640625 -23.753906 32.238281 -21.859375 30.125 -20.578125 L 36.53125 0 Z M 19.34375 -27.671875 C 21.039062 -27.671875 22.25 -27.863281 22.96875 -28.25 C 23.6875 -28.632812 24.160156 -29.351562 24.390625 -30.40625 C 24.617188 -31.457031 24.734375 -33.238281 24.734375 -35.75 C 24.734375 -38.21875 24.617188 -39.960938 24.390625 -40.984375 C 24.160156 -42.015625 23.6875 -42.722656 22.96875 -43.109375 C 22.25 -43.492188 21.039062 -43.6875 19.34375 -43.6875 L 14.640625 -43.6875 L 14.640625 -27.671875 Z M 19.34375 -27.671875 "/></g></g></g><g fill="#000000" fill-opacity="1"><g transform="translate(120.54334, 267.588863)"><g><path d="M 16.796875 0.609375 C 12.378906 0.609375 9.191406 0.046875 7.234375 -1.078125 C 5.285156 -2.210938 4.03125 -4.113281 3.46875 -6.78125 C 2.90625 -9.445312 2.625 -13.738281 2.625 -19.65625 C 2.625 -25.5625 2.90625 -29.847656 3.46875 -32.515625 C 4.03125 -35.191406 5.285156 -37.09375 7.234375 -38.21875 C 9.191406 -39.351562 12.378906 -39.921875 16.796875 -39.921875 C 21.210938 -39.921875 24.394531 -39.351562 26.34375 -38.21875 C 28.300781 -37.09375 29.5625 -35.191406 30.125 -32.515625 C 30.695312 -29.847656 30.984375 -25.5625 30.984375 -19.65625 C 30.984375 -13.738281 30.695312 -9.445312 30.125 -6.78125 C 29.5625 -4.113281 28.300781 -2.210938 26.34375 -1.078125 C 24.394531 0.046875 21.210938 0.609375 16.796875 0.609375 Z M 16.796875 -7.703125 C 18.285156 -7.703125 19.300781 -7.929688 19.84375 -8.390625 C 20.382812 -8.859375 20.71875 -9.820312 20.84375 -11.28125 C 20.96875 -12.75 21.03125 -15.539062 21.03125 -19.65625 C 21.03125 -23.757812 20.96875 -26.539062 20.84375 -28 C 20.71875 -29.46875 20.382812 -30.429688 19.84375 -30.890625 C 19.300781 -31.359375 18.285156 -31.59375 16.796875 -31.59375 C 15.304688 -31.59375 14.289062 -31.359375 13.75 -30.890625 C 13.21875 -30.429688 12.882812 -29.46875 12.75 -28 C 12.625 -26.539062 12.5625 -23.757812 12.5625 -19.65625 C 12.5625 -15.539062 12.625 -12.75 12.75 -11.28125 C 12.882812 -9.820312 13.21875 -8.859375 13.75 -8.390625 C 14.289062 -7.929688 15.304688 -7.703125 16.796875 -7.703125 Z M 16.796875 -7.703125 "/></g></g></g><g fill="#000000" fill-opacity="1"><g transform="translate(150.977956, 267.588863)"><g><path d="M 6.015625 0 L 6.015625 -30.984375 L 1.15625 -30.984375 L 1.15625 -39.296875 L 6.015625 -39.296875 L 6.015625 -50.703125 L 15.953125 -50.703125 L 15.953125 -39.296875 L 22.1875 -39.296875 L 22.1875 -30.984375 L 15.953125 -30.984375 L 15.953125 0 Z M 6.015625 0 "/></g></g></g><g fill="#000000" fill-opacity="1"><g transform="translate(171.087782, 267.588863)"><g><path d="M 10.859375 0.609375 C 7.679688 0.609375 5.394531 -0.347656 4 -2.265625 C 2.613281 -4.191406 1.921875 -7.210938 1.921875 -11.328125 C 1.921875 -14.359375 2.226562 -16.734375 2.84375 -18.453125 C 3.46875 -20.171875 4.507812 -21.425781 5.96875 -22.21875 C 7.4375 -23.019531 9.476562 -23.421875 12.09375 -23.421875 C 13.945312 -23.421875 16.414062 -23.320312 19.5 -23.125 L 19.5 -24.890625 C 19.5 -27.046875 19.332031 -28.570312 19 -29.46875 C 18.664062 -30.375 18.046875 -30.953125 17.140625 -31.203125 C 16.242188 -31.460938 14.691406 -31.59375 12.484375 -31.59375 C 10.328125 -31.59375 7.453125 -31.414062 3.859375 -31.0625 L 3.859375 -38.765625 C 7.710938 -39.535156 11.585938 -39.921875 15.484375 -39.921875 C 19.335938 -39.921875 22.265625 -39.40625 24.265625 -38.375 C 26.273438 -37.34375 27.640625 -35.722656 28.359375 -33.515625 C 29.078125 -31.304688 29.4375 -28.148438 29.4375 -24.046875 L 29.4375 0 L 19.953125 0 L 19.65625 -4.625 L 19.109375 -4.625 C 18.441406 -2.71875 17.363281 -1.367188 15.875 -0.578125 C 14.382812 0.210938 12.710938 0.609375 10.859375 0.609375 Z M 15.1875 -8.015625 C 16.050781 -8.015625 16.753906 -8.113281 17.296875 -8.3125 C 17.835938 -8.519531 18.289062 -8.910156 18.65625 -9.484375 C 19.21875 -10.347656 19.5 -12.117188 19.5 -14.796875 L 19.5 -16.71875 L 14.875 -16.71875 C 13.539062 -16.71875 12.65625 -16.4375 12.21875 -15.875 C 11.78125 -15.3125 11.5625 -14.078125 11.5625 -12.171875 C 11.5625 -10.523438 11.78125 -9.421875 12.21875 -8.859375 C 12.65625 -8.296875 13.644531 -8.015625 15.1875 -8.015625 Z M 15.1875 -8.015625 "/></g></g></g><g fill="#000000" fill-opacity="1"><g transform="translate(200.75189, 267.588863)"><g><path d="M 6.015625 0 L 6.015625 -30.984375 L 1.15625 -30.984375 L 1.15625 -39.296875 L 6.015625 -39.296875 L 6.015625 -50.703125 L 15.953125 -50.703125 L 15.953125 -39.296875 L 22.1875 -39.296875 L 22.1875 -30.984375 L 15.953125 -30.984375 L 15.953125 0 Z M 6.015625 0 "/></g></g></g><g fill="#000000" fill-opacity="1"><g transform="translate(220.861721, 267.588863)"><g><path d="M 16.796875 0.609375 C 12.378906 0.609375 9.191406 0.046875 7.234375 -1.078125 C 5.285156 -2.210938 4.03125 -4.113281 3.46875 -6.78125 C 2.90625 -9.445312 2.625 -13.738281 2.625 -19.65625 C 2.625 -25.5625 2.90625 -29.847656 3.46875 -32.515625 C 4.03125 -35.191406 5.285156 -37.09375 7.234375 -38.21875 C 9.191406 -39.351562 12.378906 -39.921875 16.796875 -39.921875 C 21.210938 -39.921875 24.394531 -39.351562 26.34375 -38.21875 C 28.300781 -37.09375 29.5625 -35.191406 30.125 -32.515625 C 30.695312 -29.847656 30.984375 -25.5625 30.984375 -19.65625 C 30.984375 -13.738281 30.695312 -9.445312 30.125 -6.78125 C 29.5625 -4.113281 28.300781 -2.210938 26.34375 -1.078125 C 24.394531 0.046875 21.210938 0.609375 16.796875 0.609375 Z M 16.796875 -7.703125 C 18.285156 -7.703125 19.300781 -7.929688 19.84375 -8.390625 C 20.382812 -8.859375 20.71875 -9.820312 20.84375 -11.28125 C 20.96875 -12.75 21.03125 -15.539062 21.03125 -19.65625 C 21.03125 -23.757812 20.96875 -26.539062 20.84375 -28 C 20.71875 -29.46875 20.382812 -30.429688 19.84375 -30.890625 C 19.300781 -31.359375 18.285156 -31.59375 16.796875 -31.59375 C 15.304688 -31.59375 14.289062 -31.359375 13.75 -30.890625 C 13.21875 -30.429688 12.882812 -29.46875 12.75 -28 C 12.625 -26.539062 12.5625 -23.757812 12.5625 -19.65625 C 12.5625 -15.539062 12.625 -12.75 12.75 -11.28125 C 12.882812 -9.820312 13.21875 -8.859375 13.75 -8.390625 C 14.289062 -7.929688 15.304688 -7.703125 16.796875 -7.703125 Z M 16.796875 -7.703125 "/></g></g></g><g fill="#000000" fill-opacity="1"><g transform="translate(251.296332, 267.588863)"><g><path d="M 25.5 0 L 20.34375 -18.5 L 14.640625 -18.5 L 14.640625 0 L 4 0 L 4 -53.015625 L 21.890625 -53.015625 C 25.691406 -53.015625 28.554688 -52.375 30.484375 -51.09375 C 32.410156 -49.8125 33.707031 -47.960938 34.375 -45.546875 C 35.039062 -43.128906 35.375 -39.890625 35.375 -35.828125 C 35.375 -31.972656 35.023438 -28.785156 34.328125 -26.265625 C 33.640625 -23.753906 32.238281 -21.859375 30.125 -20.578125 L 36.53125 0 Z M 19.34375 -27.671875 C 21.039062 -27.671875 22.25 -27.863281 22.96875 -28.25 C 23.6875 -28.632812 24.160156 -29.351562 24.390625 -30.40625 C 24.617188 -31.457031 24.734375 -33.238281 24.734375 -35.75 C 24.734375 -38.21875 24.617188 -39.960938 24.390625 -40.984375 C 24.160156 -42.015625 23.6875 -42.722656 22.96875 -43.109375 C 22.25 -43.492188 21.039062 -43.6875 19.34375 -43.6875 L 14.640625 -43.6875 L 14.640625 -27.671875 Z M 19.34375 -27.671875 "/></g></g></g></svg>